Coordinates
version=1
nRows=20
nColumns=38
inDegrees=no

Units are S.I. units (second, meters, Newtons, ...)
If the header above contains a line with 'inDegrees', this indicates whether rotational values are in degrees (yes) or radians (no).

endheader
time	pelvis_tilt	pelvis_list	pelvis_rotation	pelvis_tx	pelvis_ty	pelvis_tz	hip_flexion_r	hip_adduction_r	hip_rotation_r	knee_angle_r	ankle_angle_r	subtalar_angle_r	mtp_angle_r	hip_flexion_l	hip_adduction_l	hip_rotation_l	knee_angle_l	ankle_angle_l	subtalar_angle_l	mtp_angle_l	lumbar_extension	lumbar_bending	lumbar_rotation	arm_flex_r	arm_add_r	arm_rot_r	elbow_flex_r	pro_sup_r	wrist_flex_r	wrist_dev_r	arm_flex_l	arm_add_l	arm_rot_l	elbow_flex_l	pro_sup_l	wrist_flex_l	wrist_dev_l
5.365	-0.0941985	0.0252561	-3.16463	-0.227762	0.9134	0.0415506	0.191695	0.0664531	-0.120781	0.835476	0.478993	0	0	0.314666	-0.0810049	-0.0519457	1.40546	0.0490562	0	0	-0.433825	0.0188135	0.416258	-0.11951	-0.702763	-0.0270397	2.07495	1.36105	0	0	0.291083	-0.431736	1.04879	1.55835	1.29881	0	0
5.37499	-0.0863554	0.0186439	-3.1662	-0.22749	0.916674	0.040567	0.164224	0.0624815	-0.112807	0.811273	0.477381	0	0	0.347699	-0.0719845	-0.0536289	1.37945	0.0690619	0	0	-0.424681	0.00855507	0.429338	-0.0865427	-0.706268	-0.00606942	2.09309	1.36164	0	0	0.256109	-0.450859	1.02775	1.56657	1.30133	0	0
5.38498	-0.0785412	0.0120811	-3.16849	-0.227343	0.920771	0.0395631	0.135249	0.0586996	-0.103848	0.782724	0.46812	0	0	0.377064	-0.0631177	-0.0573627	1.34442	0.0870315	0	0	-0.415523	-0.00208186	0.443799	-0.0560871	-0.710066	0.016241	2.11143	1.36292	0	0	0.222458	-0.469229	1.0069	1.57617	1.30331	0	0
5.39497	-0.0707662	0.00561138	-3.17138	-0.227357	0.92558	0.0385434	0.105301	0.0549906	-0.0942012	0.75086	0.451092	0	0	0.402561	-0.0544349	-0.062849	1.3007	0.102791	0	0	-0.406289	-0.0129678	0.459415	-0.0282332	-0.714044	0.0399235	2.12955	1.36512	0	0	0.190173	-0.48664	0.986433	1.58672	1.30449	0	0
5.40496	-0.0629522	-0.000727273	-3.17468	-0.227567	0.93097	0.0375195	0.0749951	0.051235	-0.0842223	0.716726	0.426427	0	0	0.424176	-0.045903	-0.0696566	1.24873	0.116275	0	0	-0.396816	-0.0239547	0.475738	-0.00282518	-0.718038	0.0652294	2.14697	1.36835	0	0	0.15906	-0.50297	0.966245	1.5979	1.30483	0	0
5.41495	-0.0549546	-0.00687258	-3.17821	-0.228008	0.936794	0.0365096	0.0449893	0.0473578	-0.0742905	0.68134	0.394493	0	0	0.442058	-0.0374652	-0.0772418	1.18914	0.127544	0	0	-0.386878	-0.0348505	0.492187	0.0204698	-0.721854	0.0925372	2.16319	1.3726	0	0	0.128753	-0.518146	0.946054	1.60951	1.30444	0	0
5.42494	-0.046604	-0.0127122	-3.18176	-0.228701	0.942892	0.0355355	0.0159318	0.043369	-0.0647568	0.645663	0.355885	0	0	0.456483	-0.029087	-0.0849806	1.12269	0.1368	0	0	-0.376241	-0.0454031	0.508174	0.0420545	-0.725303	0.122217	2.17776	1.37779	0	0	0.0988475	-0.532103	0.925507	1.62139	1.30356	0	0
5.43493	-0.0377577	-0.0180667	-3.18516	-0.229653	0.949106	0.0346191	-0.0115992	0.0393883	-0.0558945	0.610578	0.311391	0	0	0.467794	-0.0208014	-0.0922125	1.05034	0.144379	0	0	-0.364728	-0.055303	0.52322	0.0622806	-0.728231	0.154482	2.19031	1.38378	0	0	0.0690326	-0.544753	0.904331	1.63337	1.30252	0	0
5.44493	-0.0283423	-0.0226983	-3.18833	-0.230854	0.955283	0.0337795	-0.0371459	0.0356343	-0.04787	0.576888	0.261962	0	0	0.476359	-0.0127239	-0.0982898	0.973196	0.150725	0	0	-0.352266	-0.0642065	0.537037	0.0813367	-0.730545	0.189272	2.20056	1.39038	0	0	0.0391967	-0.555986	0.88244	1.6453	1.30168	0	0
5.45492	-0.0183607	-0.0263439	-3.1912	-0.232282	0.961275	0.0330325	-0.0603767	0.0323809	-0.0407585	0.545328	0.208722	0	0	0.482554	-0.00502901	-0.102615	0.892568	0.156322	0	0	-0.338884	-0.0717745	0.549542	0.0991786	-0.7322	0.226186	2.20841	1.3974	0	0	0.00948363	-0.565686	0.860001	1.65702	1.30135	0	0
5.46491	-0.0078776	-0.0287634	-3.19372	-0.233911	0.96694	0.0323903	-0.0810659	0.0298976	-0.0345937	0.516597	0.152964	0	0	0.486776	0.00209265	-0.104683	0.809942	0.161613	0	0	-0.324682	-0.0777164	0.560802	0.115538	-0.733174	0.264526	2.21384	1.40468	0	0	-0.0197183	-0.573765	0.837429	1.66837	1.30177	0	0
5.4749	0.00298607	-0.0297804	-3.19583	-0.235712	0.972147	0.0318625	-0.0990847	0.0283945	-0.0294129	0.491362	0.0961073	0	0	0.489434	0.00846725	-0.104138	0.726957	0.166934	0	0	-0.309818	-0.0818284	0.570953	0.130016	-0.73346	0.30341	2.21691	1.41212	0	0	-0.0478509	-0.58018	0.8153	1.6792	1.30313	0	0
5.48489	0.014048	-0.0293139	-3.19749	-0.237653	0.976777	0.0314557	-0.114405	0.0279777	-0.0252867	0.470259	0.0396242	0	0	0.490924	0.0139637	-0.100836	0.645367	0.172468	0	0	-0.294516	-0.0840232	0.580143	0.142182	-0.733059	0.341895	2.21771	1.4196	0	0	-0.0742556	-0.584943	0.794271	1.68937	1.30553	0	0
5.49488	0.0250634	-0.0273979	-3.19862	-0.239705	0.980726	0.0311745	-0.127097	0.0286194	-0.0223409	0.453885	-0.0150438	0	0	0.491602	0.0185174	-0.0948838	0.566977	0.178223	0	0	-0.279067	-0.0843504	0.588488	0.151649	-0.731976	0.379067	2.21633	1.42701	0	0	-0.098238	-0.588109	0.775006	1.6988	1.30895	0	0
5.50487	0.0357345	-0.0241809	-3.19914	-0.241834	0.983909	0.0310215	-0.137315	0.030155	-0.0207671	0.442786	-0.0665613	0	0	0.491775	0.0221427	-0.086654	0.493588	0.184028	0	0	-0.263823	-0.0829918	0.596039	0.158139	-0.730216	0.414119	2.21283	1.43419	0	0	-0.11913	-0.589766	0.758107	1.70739	1.31327	0	0
5.51486	0.0457251	-0.0199103	-3.19899	-0.244006	0.986258	0.0309971	-0.14528	0.032299	-0.020807	0.437431	-0.113767	0	0	0.491691	0.0249336	-0.0767505	0.426932	0.18954	0	0	-0.249188	-0.0802447	0.602791	0.161505	-0.727792	0.446379	2.20727	1.44096	0	0	-0.136316	-0.590018	0.744098	1.71508	1.31829	0	0
5.52485	0.0546789	-0.0149091	-3.19809	-0.246184	0.987726	0.0310992	-0.151263	0.0346712	-0.0227206	0.438186	-0.155743	0	0	0.491539	0.0270585	-0.0659524	0.368611	0.194277	0	0	-0.235599	-0.0764957	0.608696	0.161728	-0.724719	0.475315	2.19966	1.44709	0	0	-0.14925	-0.588971	0.733407	1.7218	1.32375	0	0
5.53484	0.0622368	-0.00955007	-3.19638	-0.248324	0.988283	0.0313226	-0.155565	0.0368299	-0.0267455	0.445293	-0.19187	0	0	0.491441	0.0287476	-0.0551272	0.320024	0.197671	0	0	-0.223512	-0.0721913	0.613677	0.158913	-0.721019	0.500537	2.19002	1.45232	0	0	-0.157475	-0.586719	0.726359	1.72749	1.32934	0	0
5.54483	0.0680455	-0.00422957	-3.19383	-0.250383	0.987919	0.0316589	-0.158515	0.0383078	-0.0330549	0.458847	-0.221865	0	0	0.491436	0.0302768	-0.0451322	0.282303	0.19914	0	0	-0.213393	-0.0678073	0.617645	0.153267	-0.716717	0.521783	2.17836	1.45637	0	0	-0.160624	-0.583331	0.723172	1.73209	1.3347	0	0
5.55482	0.0717635	0.000656078	-3.19042	-0.252315	0.986647	0.0320965	-0.160463	0.0386473	-0.0417258	0.478791	-0.24574	0	0	0.491465	0.0319461	-0.0367129	0.25625	0.198165	0	0	-0.205713	-0.0638202	0.620502	0.145085	-0.711839	0.538911	2.16466	1.45903	0	0	-0.158437	-0.578849	0.72395	1.73551	1.33954	0	0
